<?xml version="1.0" encoding="UTF-8" standalone="no"?>
<svg width="290px" height="289px" viewBox="0 0 290 289" version="1.1" xmlns="http://www.w3.org/2000/svg" xmlns:xlink="http://www.w3.org/1999/xlink" xmlns:sketch="http://www.bohemiancoding.com/sketch/ns">
    <!-- Generator: Sketch 3.3.3 (12072) - http://www.bohemiancoding.com/sketch -->
    <title>Brain</title>
    <desc>Created with Sketch.</desc>
    <defs></defs>
    <g id="Page-1" stroke="none" stroke-width="1" fill="none" fill-rule="evenodd" sketch:type="MSPage">
        <g id="Artboard-1" sketch:type="MSArtboardGroup" transform="translate(-408.000000, -2897.000000)">
            <g id="Brain" sketch:type="MSLayerGroup" transform="translate(407.000000, 2897.000000)">
                <g id="Imported-Layers" fill="#FFBB3E" sketch:type="MSShapeGroup">
                    <path d="M246.467357,51.9913579 C243.450424,51.0738113 240.508291,47.1991713 237.546211,43.4591713 C229.557571,33.3861046 220.441944,27.4270379 202.405171,24.0560513 C197.438451,23.1185579 192.352051,21.8718913 187.350424,20.0816779 C181.954851,18.1518379 178.952877,15.8380246 175.447251,13.1103179 C167.712931,7.12631792 154.528184,-0.0594687492 128.133757,0.000371250791 C106.391891,0.0402645841 90.9830906,9.60469125 81.7328239,18.8948513 C73.2205839,27.4270379 73.0261039,36.6025046 70.2186106,36.8169313 C49.7483439,38.3927179 27.8518906,44.5263179 18.7562106,63.9892779 C12.5827173,77.1939713 0.330477257,82.7640779 1.02861059,105.986985 C1.94615726,136.196211 25.4383439,151.116318 52.2616239,157.778505 C74.3475706,163.253865 101.854024,170.090585 134.132717,195.687145 C147.491997,206.303758 162.591624,212.262825 179.012717,213.469598 C192.197464,286.439491 195.742984,287.182505 200.206051,288.134958 L201.687091,288.289545 C207.995224,288.289545 214.113864,283.851411 224.979811,229.521678 C226.834851,220.171678 228.525331,214.990531 229.986424,206.632878 C248.357304,201.257251 264.798344,189.882665 275.649331,176.209225 C286.555171,162.455998 288.365331,140.345118 289.691784,127.255118 C290.040851,123.769438 290.295171,120.184025 290.374957,116.543758 C291.053144,87.3617846 282.580797,62.8772513 246.467357,51.9913579 L246.467357,51.9913579 Z M267.366477,165.512825 C257.767144,177.630425 229.737091,214.058025 172.445277,177.281358 C168.161731,174.533705 166.037411,182.208185 170.340904,184.895998 C185.924237,194.634958 200.495277,202.369278 219.175331,202.778185 C217.813971,210.547411 216.312984,218.925011 214.617517,227.457198 C209.027464,255.312718 204.998237,267.973865 202.559757,273.683598 C200.245944,266.083918 195.937464,248.416158 188.612051,207.490585 L187.854077,203.246931 L183.550584,203.147198 C167.772771,202.798131 153.336371,197.517251 140.635331,187.449171 C135.883037,183.689225 131.230477,180.378078 126.672664,177.316265 C138.785277,178.877091 150.339384,177.570585 159.649491,166.136158 C162.860904,162.181731 164.750851,157.663811 165.688344,153.006265 C178.464184,169.487198 201.372931,178.508078 221.553971,179.111465 C226.655331,179.266051 226.635384,171.377145 221.553971,171.222558 C203.846317,170.674025 187.330477,163.642825 174.684291,151.255945 C167.947304,144.653598 163.115224,136.196211 164.052717,126.906051 C164.870531,118.688025 176.070584,116.718291 188.597091,116.055065 C201.118611,115.411785 210.079651,119.251518 221.105171,113.112931 C239.805171,102.730691 248.257571,84.2052246 246.916157,64.2037046 C251.588664,64.7871446 254.570691,66.4227713 257.318344,68.3526113 C261.292717,71.1351713 265.127464,75.9672513 265.087571,76.3013579 C263.746157,92.0592246 257.103917,103.728025 247.265224,111.128238 C243.216051,114.165118 248.651517,119.600585 252.835331,116.718291 C266.937624,107.054131 269.685277,98.5069846 273.155997,82.7092246 C278.746051,89.2916246 281.548557,104.600691 278.995384,110.853971 C267.680637,138.634691 223.035011,153.180798 198.839704,132.810265 C194.965064,129.553971 189.355064,135.109118 193.249651,138.400318 C218.517091,159.648505 259.637144,149.969385 279.249704,125.250478 C279.209811,125.544691 279.209811,125.873811 279.194851,126.168025 C278.003037,137.991411 276.347464,154.178131 267.366477,165.512825 L267.366477,165.512825 Z"></path>
                </g>
                <path d="M20.6062639,83.8561579 C21.2096506,118.762825 61.9207973,131.054958 90.4594906,140.714131 C95.2915706,142.354745 97.3560506,134.735118 92.5638639,133.099491 C69.9293839,125.444958 43.7842906,115.471625 31.3575173,93.6150646 C12.2286639,59.9949579 56.1761573,45.1147446 80.1520506,56.4095446 C88.5495973,60.3639713 101.719384,80.7594379 131.265384,84.6141313 C136.291944,85.2773579 138.356424,77.9718913 133.369757,76.9994913 C112.565384,72.9503179 67.4161039,45.7181313 88.1606373,27.2674646 C97.3161573,19.1491713 109.997251,11.2602646 128.148717,10.5571446 C144.340424,9.93381125 162.317357,16.2818379 168.999491,21.4629846 C171.432984,23.3529313 196.505944,42.8707446 205.018184,75.4785579 C206.299757,80.4103713 213.704957,78.3458913 212.632824,73.3791713 C209.396477,58.5139179 203.088344,44.6659446 193.833091,32.8974113 C195.977357,33.4060513 214.153757,34.3036513 227.847144,47.4285579 C243.799491,62.7027179 236.279597,95.5847979 219.469544,105.189118 C200.964024,115.780798 183.590477,101.095065 175.272717,85.1826113 C174.998451,84.6739713 163.429384,52.2805846 131.754077,41.6839179 C126.961891,40.0881846 123.181997,46.3215179 127.759757,48.5206379 C147.222717,57.8157846 182.184237,83.7215179 162.217624,107.697411 C139.408611,135.089171 97.0219439,108.944078 82.1616773,86.4691713 C79.3741306,82.2404779 72.5174639,86.1949046 75.3249573,90.4585046 C88.3551173,110.135891 116.873864,129.868131 142.061517,126.846211 C144.086104,126.611838 148.703757,127.060638 149.421837,127.609171 C163.504184,138.185891 161.399811,161.129545 146.459757,167.382825 C121.002824,178.039331 95.2915706,157.623918 54.7948506,147.575785 C-1.79384274,133.508398 16.4773039,90.7527179 20.6062639,83.8561579 L20.6062639,83.8561579 Z" id="Path" fill="#FFFAEA" sketch:type="MSShapeGroup"></path>
            </g>
        </g>
    </g>
</svg>