<?xml version="1.0" encoding="UTF-8" standalone="no"?>
<svg width="266px" height="314px" viewBox="0 0 266 314" version="1.1" xmlns="http://www.w3.org/2000/svg" xmlns:xlink="http://www.w3.org/1999/xlink" xmlns:sketch="http://www.bohemiancoding.com/sketch/ns">
    <!-- Generator: Sketch 3.3.3 (12072) - http://www.bohemiancoding.com/sketch -->
    <title>Compass</title>
    <desc>Created with Sketch.</desc>
    <defs></defs>
    <g id="Page-1" stroke="none" stroke-width="1" fill="none" fill-rule="evenodd" sketch:type="MSPage">
        <g id="Artboard-1" sketch:type="MSArtboardGroup" transform="translate(-1244.000000, -4399.000000)">
            <g id="Compass" sketch:type="MSLayerGroup" transform="translate(1244.000000, 4399.000000)">
                <path d="M172.4632,152.143467 L169.64976,154.220053 C175.43992,162.070053 178.512933,171.39376 178.512933,181.169627 L216.113387,181.169627 L180.560213,169.363227 C179.053013,163.183707 176.323307,157.360053 172.4632,152.143467 L172.4632,152.143467 Z" id="Fill-1" fill="#FFBB3E" sketch:type="MSShapeGroup"></path>
                <path d="M93.6701333,210.199973 L96.4835733,208.123387 C90.6934133,200.25664 87.6204,190.932933 87.6204,181.157067 L50.0199467,181.157067 L85.57312,192.980213 C87.08032,199.142987 89.8100267,204.96664 93.6701333,210.199973 L93.6701333,210.199973 Z" id="Fill-2" fill="#FFBB3E" sketch:type="MSShapeGroup"></path>
                <path d="M166.430213,147.79352 L191.79304,122.426507 L158.316453,139.223413 C152.8696,135.920133 146.836613,133.72632 140.41008,132.763387 L139.886747,136.229947 C149.537013,137.67016 158.28296,142.099653 165.220267,149.020213 L166.430213,147.79352 Z" id="Fill-3" fill="#FFBB3E" sketch:type="MSShapeGroup"></path>
                <path d="M99.70312,214.533173 L98.45968,215.759867 L74.3402933,239.88344 L107.81688,223.10328 C113.263733,226.389813 119.29672,228.583627 125.723253,229.54656 L126.246587,226.096747 C116.59632,224.639787 107.850373,220.210293 100.913067,213.289733 L99.70312,214.533173 Z" id="Fill-4" fill="#FFBB3E" sketch:type="MSShapeGroup"></path>
                <path d="M88.1269867,174.353733 C88.6168267,171.18024 89.4499733,168.10304 90.54688,165.143067 L88.2902667,161.38344 C86.5569867,165.306347 85.3302933,169.476267 84.6729867,173.813653 L88.1269867,174.353733 Z" id="Fill-5" fill="#FFBB3E" sketch:type="MSShapeGroup"></path>
                <path d="M133.066667,135.72336 L133.066667,98.1270933 L121.260267,133.66352 C118.526373,134.333387 115.863653,135.267013 113.29304,136.393227 L117.056853,138.64984 C122.126907,136.75328 127.52352,135.72336 133.066667,135.72336 L133.066667,135.72336 Z" id="Fill-6" fill="#FFBB3E" sketch:type="MSShapeGroup"></path>
                <path d="M178.006347,187.97296 C177.516507,191.1632 176.68336,194.223653 175.586453,197.200373 L177.843067,200.943253 C179.576347,197.020347 180.80304,192.84624 181.460347,188.51304 L178.006347,187.97296 Z" id="Fill-7" fill="#FFBB3E" sketch:type="MSShapeGroup"></path>
                <path d="M133.066667,226.603333 L133.066667,264.216347 L144.873067,228.663173 C147.60696,227.993307 150.26968,227.05968 152.840293,225.933467 L149.07648,223.676853 C144.006427,225.59016 138.609813,226.603333 133.066667,226.603333 L133.066667,226.603333 Z" id="Fill-8" fill="#FFBB3E" sketch:type="MSShapeGroup"></path>
                <path d="M140.506373,176.610347 C142.5704,179.976427 142.160107,184.426853 139.250373,187.336587 C136.336453,190.24632 131.890213,190.67336 128.519947,188.596773 L118.183067,198.933653 L200.363147,248.453547 L150.843253,166.273467 L140.506373,176.610347 Z" id="Fill-9" fill="#FFFAEA" sketch:type="MSShapeGroup"></path>
                <path d="M125.62696,185.716347 C123.562933,182.367013 123.973227,177.89984 126.88296,174.990107 C129.79688,172.080373 134.24312,171.67008 137.613387,173.72992 L147.950267,163.39304 L65.7701867,113.873147 L115.29008,196.053227 L125.62696,185.716347 Z" id="Fill-10" fill="#FFFAEA" sketch:type="MSShapeGroup"></path>
                <path d="M146.443067,48.99656 C145.953227,42.0299467 140.163067,36.5496 133.066667,36.5496 C125.987013,36.5496 120.180107,42.0466933 119.690267,48.99656 C52.7036,55.7329067 0.223733333,112.420373 0.223733333,181.157067 C0.223733333,254.406987 59.8334933,314 133.066667,314 C206.29984,314 265.9096,254.406987 265.9096,181.157067 C265.9096,112.432933 213.412987,55.7329067 146.443067,48.99656 L146.443067,48.99656 Z M213.953067,258.380133 C212.923147,257.396267 211.319653,257.396267 210.30648,258.413627 C209.293307,259.4268 209.293307,261.04704 210.272987,262.07696 C200.706453,271.199707 189.536427,278.6436 177.240187,283.95648 C176.68336,282.616747 175.1636,281.980373 173.836427,282.516267 C172.496693,283.056347 171.86032,284.580293 172.383653,285.90328 C160.93312,290.202987 148.569893,292.656373 135.683333,292.970373 C135.633093,291.546907 134.490133,290.416507 133.066667,290.416507 C131.6432,290.416507 130.50024,291.546907 130.45,292.970373 C116.7596,292.639627 103.676267,289.876427 91.62704,285.070133 C92.17968,283.7304 91.5433067,282.2232 90.2370667,281.649627 C88.9098933,281.096987 87.40688,281.699867 86.81656,283.02704 C75.33672,277.793707 64.8700533,270.676373 55.8603467,262.07696 C56.8400267,261.04704 56.8400267,259.4268 55.8268533,258.413627 C54.81368,257.396267 53.2101867,257.396267 52.1802667,258.380133 C43.0365867,248.8136 35.59688,237.643573 30.2798133,225.343147 C31.6237333,224.803067 32.2601067,223.26656 31.7200267,221.943573 C31.1799467,220.599653 29.6601867,219.96328 28.3330133,220.486613 C24.0333067,209.040267 21.57992,196.67704 21.2868533,183.786293 C22.6935733,183.74024 23.8365333,182.593093 23.8365333,181.169627 C23.8365333,179.750347 22.71032,178.6032 21.2868533,178.569707 C21.5966667,164.866747 24.3598667,151.783413 29.1703467,139.73 C30.51008,140.286827 32.0130933,139.663013 32.5866667,138.340027 C33.1434933,137.01704 32.5364267,135.50984 31.2301867,134.923707 C36.46352,123.43968 43.55992,112.973013 52.1802667,103.963307 C53.2101867,104.942987 54.81368,104.942987 55.8268533,103.929813 C56.8400267,102.91664 56.8400267,101.313147 55.8603467,100.283227 C65.42688,91.1562933 76.5969067,83.69984 88.8931467,78.38696 C89.4499733,79.7266933 90.9697333,80.3630667 92.2969067,79.8229867 C93.63664,79.2870933 94.2730133,77.7631467 93.74968,76.44016 C104.429867,72.4167733 115.89296,69.99688 127.833333,69.4400533 L133.066667,80.3002667 L138.3,69.4400533 C151.040027,70.0303733 163.223227,72.7768267 174.506293,77.2733067 C173.953653,78.5962933 174.590027,80.1034933 175.896267,80.6770667 C177.22344,81.2464533 178.726453,80.6268267 179.316773,79.3164 C190.81336,84.5497333 201.26328,91.65032 210.272987,100.26648 C209.293307,101.2964 209.293307,102.899893 210.30648,103.913067 C211.319653,104.92624 212.939893,104.92624 213.953067,103.963307 C223.096747,113.513093 230.536453,124.68312 235.85352,136.983547 C234.5096,137.540373 233.873227,139.060133 234.413307,140.38312 C234.953387,141.72704 236.473147,142.38016 237.80032,141.84008 C242.100027,153.303173 244.553413,165.649653 244.84648,178.5404 C243.43976,178.569707 242.2968,179.716853 242.2968,181.14032 C242.2968,182.5596 243.423013,183.706747 244.84648,183.756987 C244.536667,197.4432 241.773467,210.526533 236.962987,222.579947 C235.623253,222.02312 234.12024,222.66368 233.546667,223.96992 C232.98984,225.292907 233.596907,226.816853 234.903147,227.38624 C229.669813,238.91632 222.573413,249.35368 213.953067,258.380133 L213.953067,258.380133 Z" id="Fill-11" fill="#FFBB3E" sketch:type="MSShapeGroup"></path>
                <path d="M115.99344,45.1866933 C116.48328,43.47016 117.23688,41.84992 118.21656,40.39296 C114.276907,39.1662667 110.827093,37.1064267 110.006507,33.6566133 C108.63328,27.7366667 110.496347,21.0170667 115.110053,15.1934133 C119.966587,9.0432 126.853653,5.25008 133.066667,5.25008 C139.27968,5.25008 146.166747,9.05994667 151.02328,15.1766667 C155.636987,20.9835733 157.500053,27.71992 156.126827,33.6398667 C155.30624,37.1064267 151.856427,39.1662667 147.916773,40.3804 C148.879707,41.8331733 149.650053,43.4534133 150.139893,45.1699467 C155.35648,43.4031733 159.936693,40.3134133 161.230373,34.7995733 C162.963653,27.3096267 160.736347,18.9865333 155.1304,11.8901333 C149.29,4.56346667 140.832933,0 133.066667,0 C125.3004,0 116.843333,4.56346667 111.002933,11.90688 C105.396987,18.9865333 103.16968,27.3263733 104.90296,34.81632 C106.179893,40.33016 110.776853,43.41992 115.99344,45.1866933 L115.99344,45.1866933 Z" id="Fill-12" fill="#FFBB3E" sketch:type="MSShapeGroup"></path>
            </g>
        </g>
    </g>
</svg>