<?xml version="1.0" encoding="UTF-8" standalone="no"?>
<svg width="120px" height="101px" viewBox="0 0 120 101" version="1.1" xmlns="http://www.w3.org/2000/svg" xmlns:xlink="http://www.w3.org/1999/xlink" xmlns:sketch="http://www.bohemiancoding.com/sketch/ns">
    <!-- Generator: Sketch 3.3.3 (12072) - http://www.bohemiancoding.com/sketch -->
    <title>Installation</title>
    <desc>Created with Sketch.</desc>
    <defs></defs>
    <g id="Page-1" stroke="none" stroke-width="1" fill="none" fill-rule="evenodd" sketch:type="MSPage">
        <g id="Artboard-1" sketch:type="MSArtboardGroup" transform="translate(-422.000000, -183.000000)" fill="#4298EB">
            <path d="M515.0106,234.087133 C529.3666,234.087133 541.0364,222.466667 541.0364,208.187133 C541.0364,197.018067 532.923533,187.970333 525.378,184.299933 L522.718933,183 L522.718933,202.193133 L515.318933,206.423467 L507.918933,202.193133 L507.918933,183.298467 L505.395533,184.290067 C495.469667,188.2022 489.303,197.356 489.303,208.187133 C489.303,211.3272 489.853067,214.380933 490.931,217.2916 L481.5182,226.714267 L472.1054,217.301467 C473.1932,214.380933 473.7334,211.3272 473.7334,208.194533 C473.7334,197.365867 467.566733,188.212067 457.640867,184.299933 L455.117467,183.308333 L455.117467,202.203 L447.717467,206.433333 L440.317467,202.203 L440.317467,183 L437.6584,184.299933 C430.112867,187.9802 422,197.018067 422,208.187133 C422,222.466667 433.6772,234.087133 448.0258,234.087133 C450.790933,234.087133 453.5166,233.633267 456.1584,232.747733 L465.8228,242.412133 L443.7486,264.486333 C441.647,266.585467 440.5,269.370333 440.5,272.337733 C440.5,275.305133 441.656867,278.09 443.7486,280.181733 C445.847733,282.283333 448.6326,283.437733 451.6,283.437733 C454.5674,283.437733 457.352267,282.283333 459.444,280.181733 L481.5182,258.1174 L503.5924,280.1916 C505.694,282.2932 508.478867,283.4476 511.446267,283.4476 C514.413667,283.4476 517.198533,282.2932 519.2878,280.1916 C521.3894,278.09 522.546267,275.305133 522.546267,272.3476 C522.546267,269.3802 521.3894,266.595333 519.2878,264.4962 L497.2136,242.419533 L506.878,232.755133 C509.5198,233.643133 512.245467,234.087133 515.0106,234.087133 L515.0106,234.087133 Z M457.093267,228.4582 L455.966,228.892333 C453.403133,229.883933 450.724333,230.394533 448.0258,230.394533 C435.7122,230.394533 425.7,220.431667 425.7,208.194533 C425.7,199.909 430.9614,192.962867 436.617467,189.166667 L436.617467,204.351467 L447.717467,210.700667 L458.817467,204.351467 L458.817467,188.924933 C465.803067,192.721133 470.0334,199.8794 470.0334,208.194533 C470.0334,211.250733 469.4266,214.228 468.230267,217.022733 L467.7394,218.167267 L478.906,229.336333 L468.4424,239.799933 L457.093267,228.4582 Z M516.6682,267.096067 C518.064333,268.494667 518.8364,270.354533 518.8364,272.327867 C518.8364,274.303667 518.064333,276.163533 516.6682,277.562133 C513.873467,280.3544 508.999333,280.3544 506.2046,277.562133 L484.1304,255.495333 L494.594,245.031733 L516.6682,267.096067 Z M456.8318,277.569533 C454.037067,280.364267 449.162933,280.364267 446.3682,277.569533 C444.972067,276.1734 444.2,274.313533 444.2,272.337733 C444.2,270.3644 444.972067,268.504533 446.3682,267.105933 L495.306867,218.177133 L494.816,217.0326 C493.619667,214.237867 493.012867,211.2606 493.012867,208.2044 C493.012867,199.889267 497.2432,192.731 504.2288,188.9348 L504.2288,204.361333 L515.3288,210.710533 L526.4288,204.361333 L526.4288,189.176533 C532.084867,192.962867 537.346267,199.918867 537.346267,208.2044 C537.346267,220.441533 527.3242,230.4044 515.020467,230.4044 C512.312067,230.4044 509.643133,229.903667 507.080267,228.9022 L505.953,228.468067 L456.8318,277.569533 Z" id="Installation" sketch:type="MSShapeGroup"></path>
        </g>
    </g>
</svg>