<?xml version="1.0" encoding="UTF-8" standalone="no"?>
<svg width="377px" height="309px" viewBox="0 0 377 309" version="1.1" xmlns="http://www.w3.org/2000/svg" xmlns:xlink="http://www.w3.org/1999/xlink" xmlns:sketch="http://www.bohemiancoding.com/sketch/ns">
    <!-- Generator: Sketch 3.3.3 (12072) - http://www.bohemiancoding.com/sketch -->
    <title>Leadership</title>
    <desc>Created with Sketch.</desc>
    <defs></defs>
    <g id="Page-1" stroke="none" stroke-width="1" fill="none" fill-rule="evenodd" sketch:type="MSPage">
        <g id="Artboard-1" sketch:type="MSArtboardGroup" transform="translate(-362.000000, -3860.000000)">
            <g id="Leadership" sketch:type="MSLayerGroup" transform="translate(365.000000, 3864.000000)">
                <path d="M372.43284,113.51328 C370.76652,111.57348 367.83456,111.35088 365.89476,113.0172 L274.24716,191.79216 C272.31372,193.48392 272.08476,196.39044 273.75108,198.35568 C274.67328,199.4178 275.96436,199.96476 277.28088,199.96476 C278.34936,199.96476 279.41784,199.59588 280.30824,198.85176 L371.9622,120.07044 C373.8702,118.37868 374.0928,115.44672 372.43284,113.51328 L372.43284,113.51328 Z" id="Fill-2" fill="#FFFAEA" sketch:type="MSShapeGroup"></path>
                <path d="M155.07348,108.81324 C155.07348,134.85108 133.98372,155.96628 107.92044,155.96628 C81.8826,155.96628 60.79284,134.85108 60.79284,108.81324 C60.79284,82.78176 81.8826,61.6602 107.92044,61.6602 C133.98372,61.6602 155.07348,82.78176 155.07348,108.81324" id="Fill-3" stroke="#FFBA3A" stroke-width="8" sketch:type="MSShapeGroup"></path>
                <path d="M246.64476,203.37372 L203.04696,240.61152 L203.04696,181.43172 C203.04696,172.43868 195.6948,165.11196 186.7272,165.11196 L171.39324,165.11196 L136.3878,165.11196 L136.3878,159.17172 C136.3878,158.03328 135.54828,157.51176 134.52432,158.00784 L109.73304,170.05368 C109.68216,170.07912 107.97132,170.95044 107.97132,170.95044 L95.97,165.11196 L81.33564,158.00784 C80.31804,157.51176 79.47216,158.03328 79.47216,159.17172 L79.47216,165.11196 L61.68324,165.11196 C49.31304,165.11196 40.26912,156.14436 39.0798,144.41652 C37.88412,132.68868 30.72912,15.92544 30.72912,15.92544 C30.03588,6.5826 22.75368,-0.5724 14.58108,0.05088 C6.40848,0.6678 0.29652,8.82132 0.98976,18.1578 C0.98976,18.1578 11.42652,175.5678 11.87172,182.4048 C12.32328,189.23544 12.89568,195.76716 14.48568,200.53716 C16.07568,205.3326 54.4074,300.31284 54.4074,300.31284 L161.40804,300.31284 L161.40804,213.08544 C161.40804,208.58892 164.06652,204.91284 167.2974,204.91284 C170.55372,204.91284 173.18676,208.58892 173.18676,213.08544 L173.18676,216.5898 L173.18676,272.3352 C173.18676,272.685 173.23128,273.00936 173.33304,273.33372 C173.2122,276.7872 174.2298,280.16436 176.51304,282.82284 C181.83,289.05564 192.01872,289.18284 199.14828,283.09632 L265.9728,226.02804 C273.1278,219.96696 274.59696,209.88 269.28,203.6472 C263.96304,197.40804 253.75524,197.2872 246.64476,203.37372 Z" id="Fill-4" stroke="#FFBA3A" stroke-width="8" sketch:type="MSShapeGroup"></path>
                <path d="M128.6922,178.53804 L108.71544,232.42632 C108.31476,233.4948 107.6724,233.4948 107.27172,232.42632 L87.19956,178.56348 C86.80524,177.495 87.30132,176.20392 88.34436,175.70784 L106.05696,166.9374 C107.07456,166.44132 108.74088,166.44132 109.78392,166.9374 L127.59828,175.70784 C128.565,176.17848 129.08652,177.46956 128.6922,178.53804 L128.6922,178.53804 Z" id="Path" fill="#FFFAEA" sketch:type="MSShapeGroup"></path>
                <g id="Imported-Layers-+-Path" transform="translate(69.000000, 153.000000)" sketch:type="MSShapeGroup">
                    <path d="M45.3644413,29.033154 C40.4260576,32.5549495 35.5204654,32.5877409 30.5181385,29.0200374 C29.2441929,31.4859501 26.8356652,32.4205048 24.5107555,33.4780272 C20.1167089,35.4504294 15.7357789,37.4671001 11.3433719,39.4526189 C5.80326623,41.9382064 0.058214324,38.2229417 0.0385394887,32.1384988 C0.0254229318,24.1718301 0.0254229318,16.2231967 0.0385394887,8.26308621 C0.0516560456,2.29997155 5.81638279,-1.43988673 11.2466373,0.980118016 C16.4342356,3.311586 21.6037985,5.68732236 26.7717219,8.0319069 C28.3719419,8.76151537 29.5950608,9.87642271 30.5312551,11.4323743 C35.4499639,7.91057875 40.3883475,7.87778736 45.357883,11.4454908 C46.4777091,9.36487699 48.3861681,8.30735459 50.4356301,7.41051002 C55.144474,5.31677963 59.8123287,3.15746645 64.519533,1.04406123 C70.1432568,-1.47267812 75.8555173,2.24258661 75.8686338,8.37129781 C75.8817504,16.2740233 75.8817504,24.1783884 75.8686338,32.0614391 C75.8686338,38.2098251 70.1366985,41.9382064 64.5326496,39.421467 C59.4089946,37.1080343 54.2853395,34.7650894 49.1616845,32.4532962 C47.5352315,31.7154899 46.2793211,30.5825473 45.3644413,29.033154 L45.3644413,29.033154 Z" id="Imported-Layers" fill="#000000"></path>
                    <path d="M26.5274261,29.1987505 C26.432331,29.1348073 26.3421547,29.0774224 26.2470597,28.9938043 C26.3864231,28.5904702 26.4192145,28.0789245 26.6946622,27.8149538 C28.0587841,26.560683 28.1096107,26.5278916 27.3472109,24.8506119 C27.3357339,24.8178205 27.3160591,24.7866687 27.3160591,24.7735522 C27.1422647,23.9980357 26.6503938,23.9537674 25.9650537,24.0882121 C24.1648063,24.4784296 22.3465236,24.8309371 20.5134847,25.1129431 C20.1740938,25.1572115 19.5658135,24.9276717 19.4576019,24.6653406 C19.2264226,24.1390387 19.7068165,23.8898241 20.1740938,23.7930895 C20.7315475,23.6717614 21.2758846,23.5635498 21.8333383,23.4536986 C23.3827316,23.1143077 24.9517997,22.7880334 26.489716,22.4420842 C26.4126562,20.9369593 26.4126562,20.9369593 25.1059192,20.9369593 C24.8124363,20.9369593 24.4730454,21.0140191 24.2221912,20.9058075 C23.9926515,20.7959563 23.6647375,20.4893568 23.6778541,20.2844106 C23.7106455,20.0220794 23.9729766,19.7072821 24.2221912,19.5662791 C24.4533705,19.4449509 24.8124363,19.5351273 25.1059192,19.5351273 C26.5028325,19.5351273 26.5339843,19.4892193 26.4257728,17.997211 C24.4074626,17.5807603 22.3711171,17.1462743 20.3413299,16.7101488 C19.8281447,16.6019372 19.2526557,16.4789695 19.4248105,15.7821524 C19.5789301,15.1919074 20.1101506,15.2378153 20.6036611,15.3329104 C22.0645176,15.6280329 23.5237345,15.890364 24.9977076,16.1526952 C26.8422234,16.4920861 26.7389306,16.4347011 27.7325097,14.8787496 C28.4490017,13.7769588 28.1669957,12.9506157 27.4242706,12.1750993 C26.8799335,11.5996104 26.2470597,11.0421567 25.548603,10.7158823 C20.424948,8.32702943 15.2685016,5.99556145 10.1005782,3.6837683 C6.54599126,2.08190879 2.95861296,4.41337677 2.94057769,8.32702943 C2.92746114,16.0444836 2.92746114,23.7750543 2.95205468,31.4925084 C2.95205468,32.2860601 3.04878929,33.1058449 3.26029377,33.8682448 C3.95875042,36.3210409 6.95588366,38.2491748 10.215348,36.7112585 C14.8586092,34.5404683 19.5477783,32.4582149 24.2025164,30.3333327 C24.9911493,29.9808252 25.7535492,29.5774911 26.5274261,29.1987505 Z M49.3223623,29.1216908 C49.7125799,29.3397535 50.020819,29.5578163 50.3602099,29.7119358 C51.3849409,30.1923297 52.4211489,30.6596071 53.4458799,31.1268844 C57.5448039,32.991075 61.6322509,34.8667427 65.731175,36.7178168 C68.1954481,37.8392824 70.7908868,37.1982106 72.0517158,34.9946291 C72.5960529,34.0338413 72.8911754,32.8041641 72.904292,31.6908963 C72.9797122,23.8832659 72.9682352,16.0690771 72.9354438,8.26308621 C72.9223273,4.45764515 69.3497051,2.11470018 65.8836549,3.66409346 C60.6649049,5.99556145 55.4641901,8.35162297 50.2831501,10.7732673 C49.4879589,11.14381 48.8222936,11.8750581 48.2008967,12.5407233 C47.6122912,13.1752368 47.4384968,13.9245201 48.0795686,14.7115135 C48.3418997,15.0509044 48.5156941,15.4870299 48.6566971,15.9100389 C48.8288519,16.4215846 49.1682428,16.5183192 49.6355201,16.4215846 C50.5963079,16.2363132 51.5767705,16.0625188 52.5375583,15.8772475 C53.5294979,15.6919761 54.5099606,15.429645 55.5150167,15.3017585 C55.8101393,15.2689671 56.169205,15.6411494 56.4758045,15.8264208 C56.2577418,16.088752 56.0724704,16.4347011 55.7904644,16.6199725 C55.5592851,16.774092 55.2149755,16.7609755 54.9395278,16.8249187 C53.095012,17.2167758 51.2308213,17.62011 49.3994221,18.0037693 C49.4436905,19.528569 49.4436905,19.528569 50.8406038,19.528569 L51.2882063,19.528569 C51.799752,19.5154524 52.2686689,19.5416855 52.2489941,20.2581775 C52.2358775,20.9123657 51.8128686,20.9435176 51.3324747,20.9435176 L50.7110778,20.9435176 C49.3928638,20.9435176 49.3928638,20.9566341 49.4371322,22.4683173 C49.8273498,22.5453771 50.2126486,22.6404721 50.6159827,22.7306484 C52.3391704,23.1011912 54.0607185,23.4291051 55.7707896,23.863591 C56.0527956,23.9406508 56.2511835,24.4079281 56.4889211,24.7030507 C56.1495302,24.876845 55.8232558,25.0621164 55.4773066,25.2031194 C55.380572,25.2342712 55.2461273,25.1572115 55.1379157,25.1260596 C53.3507849,24.7866687 51.563654,24.427603 49.7830814,24.1144452 C49.4879589,24.0685372 49.0534729,24.0685372 48.8796785,24.2357733 C47.7598525,25.3244476 47.8106791,26.6246262 49.0337981,27.6362407 C49.5715769,28.0526914 49.833908,28.4429089 49.3223623,29.1216908 Z M38.0175299,11.7012637 C33.3611522,11.8111148 29.5901421,15.1787908 29.4934075,19.9450197 C29.3966729,24.7866687 32.8938749,28.5904702 37.8962017,28.6544134 C42.4115764,28.7183566 46.3252291,25.394949 46.4203241,20.1499659 C46.4973839,15.8001877 43.1411849,11.9390013 38.0175299,11.7012637 Z" id="Path" fill="#FFFAEA"></path>
                </g>
            </g>
        </g>
    </g>
</svg>