<?xml version="1.0" encoding="UTF-8" standalone="no"?>
<svg width="288px" height="358px" viewBox="0 0 288 358" version="1.1" xmlns="http://www.w3.org/2000/svg" xmlns:xlink="http://www.w3.org/1999/xlink" xmlns:sketch="http://www.bohemiancoding.com/sketch/ns">
    <!-- Generator: Sketch 3.3.3 (12072) - http://www.bohemiancoding.com/sketch -->
    <title>Personal-Mastery</title>
    <desc>Created with Sketch.</desc>
    <defs>
        <path id="path-1" d="M95.5,277.5 L104.5,258 L116.5,205.5 L223.5,264.5 L228.5,287 L334,243.5 L268,0 L0,94.5 L10,280.5 L95.5,277.5 Z"></path>
    </defs>
    <g id="Page-1" stroke="none" stroke-width="1" fill="none" fill-rule="evenodd" sketch:type="MSPage">
        <g id="Artboard-1" sketch:type="MSArtboardGroup" transform="translate(-1229.000000, -3342.000000)">
            <g id="Personal-Mastery" sketch:type="MSLayerGroup" transform="translate(1210.000000, 3266.000000)">
                <g id="Oval-2">
                    <mask id="mask-2" sketch:name="Mask" fill="white">
                        <use xlink:href="#path-1"></use>
                    </mask>
                    <use id="Mask" sketch:type="MSShapeGroup" xlink:href="#path-1"></use>
                    <circle stroke="#FFFAEA" stroke-width="9" sketch:type="MSShapeGroup" mask="url(#mask-2)" cx="165" cy="188" r="107"></circle>
                </g>
                <path d="M164.750574,147.625644 C147.338864,147.625644 133.179293,161.761326 133.179293,179.143661 C133.179293,196.530174 147.338864,210.661678 164.750574,210.661678 C182.162284,210.661678 196.321855,196.530174 196.321855,179.143661 C196.321855,161.761326 182.162284,147.625644 164.750574,147.625644 L164.750574,147.625644 Z" id="Fill-1" stroke="#FFBA3A" stroke-width="8" sketch:type="MSShapeGroup"></path>
                <path d="M210.97113,317.654961 C213.603814,328.640095 239.696267,333.925829 262.733299,338.609867 C271.970713,340.490167 279.969217,342.103047 284.790922,343.832924 C286.720441,344.522367 288.616475,344.877535 290.416243,344.877535 C297.740881,344.877535 302.123107,339.232455 302.512359,333.909115 C302.838829,329.454892 300.419606,323.839061 292.508997,322.664917 C277.139814,320.396021 252.303014,310.74799 239.616742,303.519279 C228.039629,296.908978 225.097217,267.872958 224.46102,259.123292 C224.360568,257.652479 224.343826,256.135703 224.343826,254.535359 C224.314528,247.48632 224.264301,239.488775 215.25709,231.996822 C210.577693,228.110867 205.509043,226.740337 200.607814,225.403234 C194.082609,223.63993 187.348128,221.809771 180.839664,214.008613 C180.529936,213.649266 180.040232,213.503021 179.579826,213.649266 C174.854388,215.170221 169.965716,215.934876 165.047745,215.934876 C157.656139,215.934876 152.424255,214.171572 151.31091,213.766263 C151.248128,213.716121 151.181159,213.682694 151.097449,213.649266 C150.624487,213.452879 150.084557,213.58659 149.758087,213.991899 C143.249623,221.780522 136.515142,223.606503 129.989936,225.386521 C125.088707,226.706909 120.020058,228.094153 115.340661,231.980108 C106.333449,239.472061 106.283223,247.469607 106.253925,254.518645 C106.253925,256.11899 106.237183,257.62323 106.13673,259.106578 C105.580058,266.744777 99.6450087,297.431283 87.9088464,304.125153 C75.2225739,311.353865 50.3857739,321.001896 35.0165913,323.270792 C26.7753275,324.495077 23.4394783,330.942419 23.849658,336.407826 C24.2096116,341.221395 27.6417275,346.39849 34.3301681,346.39849 C36.012742,346.39849 37.8125101,346.055857 39.6750609,345.399841 C44.4507246,343.703392 52.6250203,342.006943 62.0926377,340.030538 C85.1757101,335.233682 113.905032,329.275219 116.554458,318.256657 C119.362933,306.569544 126.850806,289.170496 129.600684,282.986396 C132.329635,289.02425 138.871583,306.540295 131.986423,323.040978 L130.546609,326.517444 C125.15149,339.54166 123.845612,342.299434 119.446643,342.299434 C117.584093,342.299434 115.148128,341.810556 111.665786,341.058436 C107.149623,340.08068 98.1089275,339.46227 88.6287536,339.46227 C75.842029,339.46227 45.0073971,340.636413 34.6231536,351.554692 C32.1704464,354.132793 31.0110609,357.103668 31.1910377,360.371212 C32.4676174,384.589484 51.3819246,389.553478 56.3710493,389.553478 C58.6437797,389.553478 62.9255536,392.507639 67.0775768,395.361518 C72.0834435,398.825449 76.8046957,402.072102 80.2409971,402.072102 C80.8939362,402.072102 81.5008348,401.959284 82.0240232,401.712755 C82.7271884,401.40355 83.5601043,401.157022 84.489287,401.02749 C81.040429,402.055388 77.6878377,403.868833 75.7750609,407.019381 C73.226087,411.227076 73.8329855,416.94319 77.558087,424.008942 C79.5713159,427.811328 82.5932522,429.737591 86.536,429.737591 C91.7846261,429.737591 97.6024812,426.40737 102.738099,423.469923 C105.990238,421.610514 109.079142,419.84721 110.665449,419.84721 C110.799386,419.84721 110.929136,419.863924 111.008661,419.897351 C113.80458,420.824966 124.758052,421.150885 133.279745,421.150885 C145.409345,421.150885 160.778528,420.532475 164.913809,418.785885 L166.86007,418.819312 C172.108696,421.071495 193.463154,421.184313 197.76167,421.184313 C206.048974,421.184313 216.726203,420.858394 219.50538,419.926601 C219.605832,419.897351 219.718841,419.880638 219.865333,419.880638 C221.451641,419.880638 224.523803,421.643942 227.79687,423.50335 C232.928301,426.440798 238.750342,429.771019 243.998968,429.771019 C247.954272,429.771019 250.980394,427.844755 252.972696,424.04237 C256.701983,416.972439 257.304696,411.260504 254.755722,407.048631 C252.859687,403.898082 249.507096,402.105529 246.058238,401.060918 C246.991606,401.207163 247.824522,401.436978 248.527687,401.746183 C249.050875,401.988533 249.653588,402.105529 250.310713,402.105529 C253.759571,402.105529 258.485009,398.842163 263.469948,395.394945 C267.621971,392.541067 271.90793,389.570192 274.180661,389.570192 C279.182342,389.570192 298.084093,384.622912 299.373229,360.400462 C299.553206,357.120382 298.39382,354.149507 295.941113,351.571406 C285.64058,340.653127 254.805948,339.478983 242.019223,339.478983 C232.534864,339.478983 223.477426,340.097393 218.982191,341.07515 C215.483107,341.82727 213.063884,342.316148 211.201333,342.316148 C206.785623,342.316148 205.496487,339.558374 200.097183,326.534158 L198.661554,323.057691 C191.906145,306.866214 198.071397,289.726229 200.884058,283.362456 C202.976812,289.826512 208.225438,306.243625 210.97113,317.654961 L210.97113,317.654961 Z" id="Fill-2" stroke="#FFBA3A" stroke-width="8" sketch:type="MSShapeGroup"></path>
            </g>
        </g>
    </g>
</svg>