<?xml version="1.0" encoding="UTF-8" standalone="no"?>
<svg width="74px" height="73px" viewBox="0 0 74 73" version="1.1" xmlns="http://www.w3.org/2000/svg" xmlns:xlink="http://www.w3.org/1999/xlink" xmlns:sketch="http://www.bohemiancoding.com/sketch/ns">
    <!-- Generator: Sketch 3.3.3 (12072) - http://www.bohemiancoding.com/sketch -->
    <title>Sales</title>
    <desc>Created with Sketch.</desc>
    <defs></defs>
    <g id="Page-1" stroke="none" stroke-width="1" fill="none" fill-rule="evenodd" sketch:type="MSPage">
        <g id="Artboard-1" sketch:type="MSArtboardGroup" transform="translate(-80.000000, -188.000000)">
            <g id="Sales" sketch:type="MSLayerGroup" transform="translate(80.000000, 188.000000)">
                <path d="M0.672,0.426 L9.379,0.426 L9.379,72.977 L0.672,72.977 L0.672,0.426 Z M73.184,64.23 L73.184,72.938 L0.633,72.938 L0.633,64.23 L73.184,64.23 Z" id="Fill-1" fill="#A8B0B7" sketch:type="MSShapeGroup"></path>
                <path d="M8.828,0.445 L72.699,0.445 L72.699,1.023 L8.828,1.023 L8.828,0.445 Z" id="Fill-2" fill="#000000" sketch:type="MSShapeGroup"></path>
                <path d="M8.828,2.918 L72.699,2.918 L72.699,3.496 L8.828,3.496 L8.828,2.918 Z" id="Fill-3" fill="#000000" sketch:type="MSShapeGroup"></path>
                <path d="M8.828,12.816 L72.699,12.816 L72.699,13.394 L8.828,13.394 L8.828,12.816 Z" id="Fill-4" fill="#000000" sketch:type="MSShapeGroup"></path>
                <path d="M8.828,10.34 L72.699,10.34 L72.699,10.918 L8.828,10.918 L8.828,10.34 Z" id="Fill-5" fill="#000000" sketch:type="MSShapeGroup"></path>
                <path d="M8.828,7.867 L72.699,7.867 L72.699,8.445 L8.828,8.445 L8.828,7.867 Z" id="Fill-6" fill="#000000" sketch:type="MSShapeGroup"></path>
                <path d="M8.828,5.395 L72.699,5.395 L72.699,5.973 L8.828,5.973 L8.828,5.395 Z" id="Fill-7" fill="#000000" sketch:type="MSShapeGroup"></path>
                <path d="M8.828,22.711 L72.699,22.711 L72.699,23.289 L8.828,23.289 L8.828,22.711 Z" id="Fill-8" fill="#000000" sketch:type="MSShapeGroup"></path>
                <path d="M8.828,20.238 L72.699,20.238 L72.699,20.816 L8.828,20.816 L8.828,20.238 Z" id="Fill-9" fill="#000000" sketch:type="MSShapeGroup"></path>
                <path d="M8.828,17.762 L72.699,17.762 L72.699,18.34 L8.828,18.34 L8.828,17.762 Z" id="Fill-10" fill="#000000" sketch:type="MSShapeGroup"></path>
                <path d="M8.828,15.289 L72.699,15.289 L72.699,15.867 L8.828,15.867 L8.828,15.289 Z" id="Fill-11" fill="#000000" sketch:type="MSShapeGroup"></path>
                <path d="M8.828,32.605 L72.699,32.605 L72.699,33.183 L8.828,33.183 L8.828,32.605 Z" id="Fill-12" fill="#000000" sketch:type="MSShapeGroup"></path>
                <path d="M8.828,30.133 L72.699,30.133 L72.699,30.711 L8.828,30.711 L8.828,30.133 Z" id="Fill-13" fill="#000000" sketch:type="MSShapeGroup"></path>
                <path d="M8.828,27.66 L72.699,27.66 L72.699,28.238 L8.828,28.238 L8.828,27.66 Z" id="Fill-14" fill="#000000" sketch:type="MSShapeGroup"></path>
                <path d="M8.828,25.184 L72.699,25.184 L72.699,25.762 L8.828,25.762 L8.828,25.184 Z" id="Fill-15" fill="#000000" sketch:type="MSShapeGroup"></path>
                <path d="M8.828,42.504 L72.699,42.504 L72.699,43.082 L8.828,43.082 L8.828,42.504 Z" id="Fill-16" fill="#000000" sketch:type="MSShapeGroup"></path>
                <path d="M8.828,40.027 L72.699,40.027 L72.699,40.605 L8.828,40.605 L8.828,40.027 Z" id="Fill-17" fill="#000000" sketch:type="MSShapeGroup"></path>
                <path d="M8.828,37.555 L72.699,37.555 L72.699,38.133 L8.828,38.133 L8.828,37.555 Z" id="Fill-18" fill="#000000" sketch:type="MSShapeGroup"></path>
                <path d="M8.828,35.082 L72.699,35.082 L72.699,35.66 L8.828,35.66 L8.828,35.082 Z" id="Fill-19" fill="#000000" sketch:type="MSShapeGroup"></path>
                <path d="M8.828,52.398 L72.699,52.398 L72.699,52.976 L8.828,52.976 L8.828,52.398 Z" id="Fill-20" fill="#000000" sketch:type="MSShapeGroup"></path>
                <path d="M8.828,49.926 L72.699,49.926 L72.699,50.504 L8.828,50.504 L8.828,49.926 Z" id="Fill-21" fill="#000000" sketch:type="MSShapeGroup"></path>
                <path d="M8.828,47.449 L72.699,47.449 L72.699,48.027 L8.828,48.027 L8.828,47.449 Z" id="Fill-22" fill="#000000" sketch:type="MSShapeGroup"></path>
                <path d="M8.828,44.977 L72.699,44.977 L72.699,45.555 L8.828,45.555 L8.828,44.977 Z" id="Fill-23" fill="#000000" sketch:type="MSShapeGroup"></path>
                <path d="M8.828,62.293 L72.699,62.293 L72.699,62.871 L8.828,62.871 L8.828,62.293 Z" id="Fill-24" fill="#000000" sketch:type="MSShapeGroup"></path>
                <path d="M8.828,59.82 L72.699,59.82 L72.699,60.398 L8.828,60.398 L8.828,59.82 Z" id="Fill-25" fill="#000000" sketch:type="MSShapeGroup"></path>
                <path d="M8.828,57.348 L72.699,57.348 L72.699,57.926 L8.828,57.926 L8.828,57.348 Z" id="Fill-26" fill="#000000" sketch:type="MSShapeGroup"></path>
                <path d="M8.828,54.871 L72.699,54.871 L72.699,55.449 L8.828,55.449 L8.828,54.871 Z" id="Fill-27" fill="#000000" sketch:type="MSShapeGroup"></path>
                <path d="M22.75,55.328 L22.75,55.328 C22.75,58.094 20.508,60.336 17.742,60.336 C14.977,60.336 12.734,58.094 12.734,55.328 C12.734,52.562 14.977,50.32 17.742,50.32 C20.508,50.32 22.75,52.562 22.75,55.328 L22.75,55.328 Z" id="Fill-28" fill="#4298EB" sketch:type="MSShapeGroup"></path>
                <path d="M34.746,34.754 L34.746,34.754 C34.746,37.52 32.504,39.762 29.738,39.762 C26.973,39.762 24.73,37.52 24.73,34.754 C24.73,31.988 26.973,29.746 29.738,29.746 C32.504,29.746 34.746,31.988 34.746,34.754 L34.746,34.754 Z" id="Fill-29" fill="#4298EB" sketch:type="MSShapeGroup"></path>
                <path d="M55.555,44.582 L55.555,44.582 C55.555,47.348 53.312,49.59 50.547,49.59 C47.781,49.59 45.539,47.348 45.539,44.582 C45.539,41.816 47.781,39.574 50.547,39.574 C53.312,39.574 55.555,41.816 55.555,44.582 L55.555,44.582 Z" id="Fill-30" fill="#4298EB" sketch:type="MSShapeGroup"></path>
                <path d="M69.715,6.867 L69.715,6.867 C69.715,9.633 67.473,11.875 64.707,11.875 C61.941,11.875 59.699,9.633 59.699,6.867 C59.699,4.102 61.941,1.859 64.707,1.859 C67.473,1.859 69.715,4.102 69.715,6.867 L69.715,6.867 Z" id="Fill-31" fill="#4298EB" sketch:type="MSShapeGroup"></path>
                <path d="M63.617,5.82 L50.105,42.312 L30.25,33.215 L28.938,32.441 L28.188,33.754 L16.297,54.457 L18.898,55.957 L30.039,36.566 L50.129,45.805 L51.652,46.695 L52.285,45.055 L66.406,6.898 L63.617,5.82 Z" id="Fill-32" fill="#4298EB" sketch:type="MSShapeGroup"></path>
            </g>
        </g>
    </g>
</svg>